HIERARCHY
ROOT Hips
{
    OFFSET   0.000000   0.000000   0.000000
    CHANNELS 6 Xposition Yposition Zposition Zrotation Xrotation Yrotation
    JOINT Chest
    {
        OFFSET   0.000000   8.007230   0.000000
        CHANNELS 3 Zrotation Xrotation Yrotation
        JOINT Chest2
        {
            OFFSET   0.000000  22.077100   0.000000
            CHANNELS 3 Zrotation Xrotation Yrotation
            JOINT Neck
            {
                OFFSET   0.000000  23.254800  -0.000021
                CHANNELS 3 Zrotation Xrotation Yrotation
                JOINT Head
                {
                    OFFSET   0.000000  14.370000   1.956610
                    CHANNELS 3 Zrotation Xrotation Yrotation
                    End Site
                    {
                        OFFSET   0.000000  19.566000   0.000000
                    }
                }
            }
            JOINT LeftCollar
            {
                OFFSET   3.911900  19.017000  -0.467063
                CHANNELS 3 Zrotation Xrotation Yrotation
                JOINT LeftShoulder
                {
                    OFFSET  10.383700   0.000000   0.000000
                    CHANNELS 3 Zrotation Xrotation Yrotation
                    JOINT LeftElbow
                    {
                        OFFSET  26.662100   0.001529   0.000325
                        CHANNELS 3 Zrotation Xrotation Yrotation
                        JOINT LeftWrist
                        {
                            OFFSET  28.869000  -0.000011  -0.000096
                            CHANNELS 3 Zrotation Xrotation Yrotation
                            JOINT LeftFinger0
                            {
                                OFFSET   2.044650  -2.323460   3.252850
                                CHANNELS 3 Zrotation Xrotation Yrotation
                                JOINT LeftFinger01
                                {
                                    OFFSET   3.088130   0.000000   0.000000
                                    CHANNELS 3 Zrotation Xrotation Yrotation
                                    JOINT LeftFinger02
                                    {
                                        OFFSET   2.639460   0.000000   0.000000
                                        CHANNELS 3 Zrotation Xrotation Yrotation
                                        End Site
                                        {
                                            OFFSET   2.582190   0.000000   0.000000
                                        }
                                    }
                                }
                            }
                            JOINT LeftFinger1
                            {
                                OFFSET   8.364480   0.000000   3.252850
                                CHANNELS 3 Zrotation Xrotation Yrotation
                                JOINT LeftFinger11
                                {
                                    OFFSET   4.646930   0.000000   0.000000
                                    CHANNELS 3 Zrotation Xrotation Yrotation
                                    JOINT LeftFinger12
                                    {
                                        OFFSET   2.323460   0.000000   0.000000
                                        CHANNELS 3 Zrotation Xrotation Yrotation
                                        End Site
                                        {
                                            OFFSET   2.273050   0.000000   0.000000
                                        }
                                    }
                                }
                            }
                            JOINT LeftFinger2
                            {
                                OFFSET   8.364480   0.000016   1.078090
                                CHANNELS 3 Zrotation Xrotation Yrotation
                                JOINT LeftFinger21
                                {
                                    OFFSET   5.111620   0.000000   0.000000
                                    CHANNELS 3 Zrotation Xrotation Yrotation
                                    JOINT LeftFinger22
                                    {
                                        OFFSET   2.788160   0.000017   0.000000
                                        CHANNELS 3 Zrotation Xrotation Yrotation
                                        End Site
                                        {
                                            OFFSET   2.727660   0.000000   0.000000
                                        }
                                    }
                                }
                            }
                            JOINT LeftFinger3
                            {
                                OFFSET   7.899780   0.000015  -1.078090
                                CHANNELS 3 Zrotation Xrotation Yrotation
                                JOINT LeftFinger31
                                {
                                    OFFSET   4.646920   0.000000   0.000000
                                    CHANNELS 3 Zrotation Xrotation Yrotation
                                    JOINT LeftFinger32
                                    {
                                        OFFSET   2.323470   0.000000   0.000000
                                        CHANNELS 3 Zrotation Xrotation Yrotation
                                        End Site
                                        {
                                            OFFSET   2.273050   0.000000   0.000000
                                        }
                                    }
                                }
                            }
                            JOINT LeftFinger4
                            {
                                OFFSET   7.435090   0.000000  -3.252850
                                CHANNELS 3 Zrotation Xrotation Yrotation
                                JOINT LeftFinger41
                                {
                                    OFFSET   3.717550   0.000000   0.000000
                                    CHANNELS 3 Zrotation Xrotation Yrotation
                                    JOINT LeftFinger42
                                    {
                                        OFFSET   1.858760   0.000000   0.000000
                                        CHANNELS 3 Zrotation Xrotation Yrotation
                                        End Site
                                        {
                                            OFFSET   1.818440   0.000000   0.000000
                                        }
                                    }
                                }
                            }
                        }
                    }
                }
            }
            JOINT RightCollar
            {
                OFFSET  -3.911900  19.017000  -0.467062
                CHANNELS 3 Zrotation Xrotation Yrotation
                JOINT RightShoulder
                {
                    OFFSET -10.383700   0.000015   0.000000
                    CHANNELS 3 Zrotation Xrotation Yrotation
                    JOINT RightElbow
                    {
                        OFFSET -26.662100   0.001341   0.000385
                        CHANNELS 3 Zrotation Xrotation Yrotation
                        JOINT RightWrist
                        {
                            OFFSET -28.869000   0.000025  -0.000080
                            CHANNELS 3 Zrotation Xrotation Yrotation
                            JOINT RightFinger0
                            {
                                OFFSET  -2.044650  -2.323490   3.252850
                                CHANNELS 3 Zrotation Xrotation Yrotation
                                JOINT RightFinger01
                                {
                                    OFFSET  -3.088130   0.000000   0.000000
                                    CHANNELS 3 Zrotation Xrotation Yrotation
                                    JOINT RightFinger02
                                    {
                                        OFFSET  -2.639460   0.000000   0.000000
                                        CHANNELS 3 Zrotation Xrotation Yrotation
                                        End Site
                                        {
                                            OFFSET  -2.582190   0.000000   0.000000
                                        }
                                    }
                                }
                            }
                            JOINT RightFinger1
                            {
                                OFFSET  -8.364480   0.000000   3.252850
                                CHANNELS 3 Zrotation Xrotation Yrotation
                                JOINT RightFinger11
                                {
                                    OFFSET  -4.646930   0.000000   0.000000
                                    CHANNELS 3 Zrotation Xrotation Yrotation
                                    JOINT RightFinger12
                                    {
                                        OFFSET  -2.323470   0.000000   0.000000
                                        CHANNELS 3 Zrotation Xrotation Yrotation
                                        End Site
                                        {
                                            OFFSET  -2.273050   0.000000   0.000000
                                        }
                                    }
                                }
                            }
                            JOINT RightFinger2
                            {
                                OFFSET  -8.364480   0.000000   1.078090
                                CHANNELS 3 Zrotation Xrotation Yrotation
                                JOINT RightFinger21
                                {
                                    OFFSET  -5.111610   0.000000   0.000000
                                    CHANNELS 3 Zrotation Xrotation Yrotation
                                    JOINT RightFinger22
                                    {
                                        OFFSET  -2.788160   0.000000   0.000000
                                        CHANNELS 3 Zrotation Xrotation Yrotation
                                        End Site
                                        {
                                            OFFSET  -2.727660   0.000000   0.000000
                                        }
                                    }
                                }
                            }
                            JOINT RightFinger3
                            {
                                OFFSET  -7.899780   0.000000  -1.078090
                                CHANNELS 3 Zrotation Xrotation Yrotation
                                JOINT RightFinger31
                                {
                                    OFFSET  -4.646920   0.000000   0.000000
                                    CHANNELS 3 Zrotation Xrotation Yrotation
                                    JOINT RightFinger32
                                    {
                                        OFFSET  -2.323470   0.000000   0.000000
                                        CHANNELS 3 Zrotation Xrotation Yrotation
                                        End Site
                                        {
                                            OFFSET  -2.273050   0.000000   0.000000
                                        }
                                    }
                                }
                            }
                            JOINT RightFinger4
                            {
                                OFFSET  -7.435090   0.000000  -3.252850
                                CHANNELS 3 Zrotation Xrotation Yrotation
                                JOINT RightFinger41
                                {
                                    OFFSET  -3.717550   0.000000   0.000000
                                    CHANNELS 3 Zrotation Xrotation Yrotation
                                    JOINT RightFinger42
                                    {
                                        OFFSET  -1.858770   0.000000   0.000000
                                        CHANNELS 3 Zrotation Xrotation Yrotation
                                        End Site
                                        {
                                            OFFSET  -1.818440   0.000000   0.000000
                                        }
                                    }
                                }
                            }
                        }
                    }
                }
            }
        }
    }
    JOINT LeftHip
    {
        OFFSET   9.783010   0.000000   0.000000
        CHANNELS 3 Zrotation Xrotation Yrotation
        JOINT LeftKnee
        {
            OFFSET   0.000070 -41.789100   0.000028
            CHANNELS 3 Zrotation Xrotation Yrotation
            JOINT LeftAnkle
            {
                OFFSET   0.000087 -41.133200  -0.000100
                CHANNELS 3 Zrotation Xrotation Yrotation
                JOINT LeftToe
                {
                    OFFSET   0.000000  -6.358960  14.674500
                    CHANNELS 3 Zrotation Xrotation Yrotation
                    End Site
                    {
                        OFFSET   0.000000   0.000000   3.913200
                    }
                }
            }
        }
    }
    JOINT RightHip
    {
        OFFSET  -9.783020   0.000000   0.000000
        CHANNELS 3 Zrotation Xrotation Yrotation
        JOINT RightKnee
        {
            OFFSET   0.000044 -41.789100  -0.000870
            CHANNELS 3 Zrotation Xrotation Yrotation
            JOINT RightAnkle
            {
                OFFSET  -0.000090 -41.133200  -0.000245
                CHANNELS 3 Zrotation Xrotation Yrotation
                JOINT RightToe
                {
                    OFFSET   0.000000  -6.358960  14.674500
                    CHANNELS 3 Zrotation Xrotation Yrotation
                    End Site
                    {
                        OFFSET   0.000000   0.000000   3.913200
                    }
                }
            }
        }
    }
}
MOTION
Frames: 6
Frame Time:   0.016667
-11.161700  89.319400   0.499854  -1.029420 -19.268400  -2.191630   2.068050  11.995200  -1.254300   4.566220  23.931800  -3.066910  -1.222210   0.224751   0.004350  -2.007770   0.454917   7.432930  -8.213880 -11.101700   7.235560 -44.963800  -0.842094 -78.329900  -9.661480 -37.566800 -61.264900 -35.451400 -53.015700 -29.529700  56.752300  41.358100 -83.147900 -16.903200   0.070718   0.023119  -3.451600   0.041210  -0.071379 -21.006100  -1.393030   3.716110 -17.206200   0.049072  -0.019582 -12.044300   0.036374  -0.003165 -88.993300  -4.019360   0.096080 -96.976000   0.025327  -0.036172 -72.731900   0.031617   0.010686 -86.558000  -5.040290   0.294038 -86.571100   0.005527  -0.038152 -64.928400   0.027618  -0.006556 -27.645900 -11.203000  20.330300 -44.501300   0.015862   0.010060 -29.637900   0.010737   0.014681   4.595800  -5.282290  13.663800  53.035500   1.719730  75.279500  -8.740450 -24.235200  60.714200  30.627300 -59.886700  34.115300 -57.596700  43.602500  86.789000  -9.333030  -0.028463  -0.005051  -9.666550  -0.016723   0.014992  23.547500   5.847600  13.121200  19.805100   0.012283  -0.001779  13.863600   0.001094  -0.002737  87.792200  -0.025036   0.012094  88.136000   0.023966   0.035170  66.102000   0.028976   0.001818  87.478700  -5.023320  -0.204042  87.271700   0.018592   0.029661  65.453700   0.023573   0.002648  26.181700  -5.730240 -11.459200  40.156500   0.000470  -0.008003  26.744300   0.000598   0.000000   8.818830   5.912260  -0.491906   3.919170  33.023100  10.800600 -13.131900  -5.706380   2.411160   0.000000   0.000000   0.000000   3.946690  21.683200  -2.891210   2.280200   0.708254 -13.689900  -3.296430  -4.698530   1.964160   0.000000   0.000000   0.000000
-11.121200  89.329400   0.467638  -0.929273 -19.103100  -2.085370   2.050740  11.948000  -1.247750   4.526360  23.838300  -3.045710  -1.278000   0.107656   0.001610  -2.099500   0.217347   7.422540  -8.266540 -10.817800   7.278260 -45.056100  -0.517524 -77.636700  -8.385920 -36.784800 -61.173800 -30.962700 -52.804800 -25.939100  57.639400  43.217900 -83.362500 -18.608800   0.070819   0.023928  -4.304370   0.041261  -0.071473 -23.491900  -1.871790   4.382660 -19.267600   0.039819  -0.014829 -13.487300   0.029595  -0.003217 -88.966100  -4.805260   0.103969 -95.311400   0.020466  -0.035475 -71.483500   0.030151   0.007682 -84.975800  -5.172100   0.445992 -84.991900   0.005678  -0.038528 -63.743900   0.027801  -0.009143 -28.354200 -11.269400  19.897200 -45.513500   0.017115   0.010358 -30.312000   0.012512   0.015139   4.601430  -5.241780  13.626200  52.684900   1.826030  74.280000  -9.182610 -24.116000  60.498300  28.064300 -59.213400  31.658600 -57.825700  44.297400  88.446800  -7.493630  -0.010974  -0.001357  -8.746840  -0.007435   0.013438  24.042500   5.642460  12.390800  20.160300   0.014429  -0.001884  14.112200   0.001148  -0.002765  86.485300  -0.029852   0.014253  86.304300   0.022645   0.028207  64.728200   0.022578   0.001994  85.658000  -5.010250  -0.366130  85.674700   0.017799   0.025348  64.256000   0.020112   0.002752  26.059300  -5.599830 -11.267400  39.929000   0.000866  -0.008236  26.592700   0.000644   0.000000   8.734830   5.939190  -0.438309   3.890260  32.585900  10.981200 -13.189700  -5.619040   2.206870   0.000000   0.000000   0.000000   3.848650  21.533300  -2.962700   2.298460   0.648625 -13.699800  -3.289490  -4.655490   1.997670  -0.000000   0.000000   0.000000
-11.079900  89.341200   0.442969  -0.816878 -18.933800  -1.990510   2.021100  11.892700  -1.241750   4.461110  23.728900  -3.024410  -1.332840  -0.023904  -0.000928  -2.189440  -0.048912   7.436180  -8.292200 -10.528900   7.371940 -45.268100  -0.179137 -76.880900  -7.038810 -35.814100 -60.922000 -26.676800 -52.192600 -22.645600  62.923600  47.569000 -85.839700 -21.410100   0.031153   0.021964  -5.705040   0.018668  -0.031671 -25.795700  -2.234720   4.731950 -21.170300   0.041262  -0.009797 -14.819100   0.031633  -0.003409 -89.378900  -5.307910   0.040682 -93.727800   0.029861  -0.057035 -70.295900   0.047961   0.005803 -83.420600  -5.361310   0.576140 -83.438700   0.006979  -0.065006 -62.579000   0.045133  -0.020195 -29.262700 -11.363400  19.331600 -46.802400   0.021564   0.010654 -31.170400   0.014212   0.015637   4.708300  -5.256440  13.693100  52.332700   1.972160  72.942000  -9.643110 -23.850500  60.295400  25.442500 -58.433200  29.258700 -58.191600  44.810500  89.602300  -5.668570   0.003236   0.000380  -7.834310  -0.000578   0.020537  24.647000   5.370240  11.478800  20.585300   0.016728  -0.001995  14.409700   0.001192  -0.002795  84.921700  -0.036882   0.018329  84.739600   0.021221   0.035874  63.554700   0.028272   0.002322  84.174600  -5.001760  -0.492862  84.209800   0.016881   0.029027  63.157400   0.022944   0.002874  26.153500  -5.412690 -10.865200  39.995400   0.010746  -0.008357  26.636900   0.005893  -0.003892   8.648380   5.982830  -0.416304   3.818880  32.123000  11.205100 -13.252200  -5.535730   2.023060  -0.000000   0.000000   0.000000   3.733550  21.388200  -3.020300   2.323110   0.573703 -13.734200  -3.303020  -4.601930   2.051650  -0.000000   0.000000   0.000000
-11.034300  89.354500   0.424145  -0.696186 -18.766900  -1.911440   1.985340  11.833700  -1.238150   4.382920  23.612400  -3.004360  -1.392340  -0.171375  -0.004060  -2.287270  -0.347186   7.478790  -8.321860 -10.270300   7.434390 -45.576000   0.139806 -75.847000  -5.673610 -34.530500 -60.660500 -22.536000 -51.221400 -19.530600  68.224800  50.594900 -88.479400 -24.026800  -0.008514   0.017050  -7.013380  -0.004934   0.008131 -27.855700  -2.630150   5.063370 -22.875300   0.042705  -0.005120 -16.012700   0.033671  -0.003619 -89.792900  -5.812220  -0.022706 -91.831200   0.039257  -0.078594 -68.873500   0.065771   0.004258 -81.464000  -5.721480   0.809922 -81.493000   0.009033  -0.090922 -61.119800   0.062191  -0.028782 -30.108600 -11.504500  18.993100 -48.064800   0.027394   0.010813 -32.011200   0.015875   0.015919   4.897060  -5.293660  13.851700  51.960500   2.133790  71.348500 -10.174100 -23.384200  59.975000  22.556000 -57.522000  26.716400 -58.411300  45.053600  90.106700  -3.729190   0.015264   0.001032  -6.864620   0.005147   0.027636  25.286300   5.021880  10.429400  21.030800   0.018066  -0.002110  14.721500   0.001236  -0.002828  83.295700  -0.044916   0.022748  83.295700   0.019649   0.047763  62.471800   0.037130   0.002830  82.837600  -4.993480  -0.604959  82.864900   0.015854   0.034780  62.148700   0.027431   0.003004  26.368800  -5.195760 -10.334100  40.283300   0.024703  -0.008733  26.828700   0.013238  -0.010180   8.563840   6.057680  -0.392943   3.711020  31.627800  11.445000 -13.320100  -5.454500   1.849870   0.000000   0.000000   0.000000   3.596970  21.247200  -3.053220   2.349540   0.499882 -13.781400  -3.323510  -4.547420   2.118250   0.000000   0.000000   0.000000
-10.981100  89.369000   0.409941  -0.567214 -18.616000  -1.854950   1.946200  11.776200  -1.238240   4.300070  23.498400  -2.996000  -1.462550  -0.337769  -0.008483  -2.402940  -0.683853   7.561620  -8.402640 -10.103800   7.411010 -45.947000   0.359463 -74.329900  -4.539180 -32.891400 -60.555900 -18.512100 -49.779100 -16.481500  67.605500  50.527600 -87.142500 -25.035400  -0.007406   0.007217  -7.517700  -0.005998   0.007972 -29.463000  -3.252730   5.770080 -24.238300   0.041961  -0.002448 -16.966800   0.031721  -0.003738 -88.747100  -6.751950   0.146907 -89.200200   0.038512  -0.069408 -66.900200   0.059925   0.002660 -78.482700  -6.561520   1.345500 -78.558500   0.010938  -0.074671 -58.918900   0.052643  -0.021389 -30.647600 -11.754000  19.010000 -48.963000   0.035651   0.007672 -32.609400   0.017891   0.015112   5.148170  -5.370020  14.111700  51.643100   2.223790  69.514300 -10.609300 -22.550000  59.610200  19.188000 -56.474100  23.828300 -58.424600  44.987400  89.929400  -1.462800   0.022932   0.000509  -5.731420   0.008715   0.027618  25.917800   4.550110   9.203500  21.466200   0.016184  -0.002225  15.026300   0.001290  -0.002867  81.873000  -0.056109   0.026219  81.884400   0.018027   0.056987  61.413300   0.044092   0.003592  81.662300  -4.985400  -0.702603  81.694000   0.014794   0.039397  61.270500   0.031213   0.003135  26.823300  -4.952430  -9.686300  40.901100   0.032889  -0.010025  27.240200   0.016553  -0.015310   8.484560   6.186840  -0.342583   3.584970  31.092500  11.681300 -13.396800  -5.374460   1.693970   0.000000   0.000000   0.000000   3.436450  21.116500  -3.054430   2.376450   0.442296 -13.855700  -3.334330  -4.501320   2.197400  -0.000000   0.000000   0.000000
-10.922600  89.385600   0.403726  -0.433077 -18.468100  -1.814440   1.905930  11.719700  -1.238330   4.212990  23.386600  -2.980550  -1.540660  -0.519905  -0.013934  -2.531440  -1.052150   7.654070  -8.525940  -9.971260   7.334230 -46.409600   0.562431 -72.385600  -3.489360 -30.891900 -60.553600 -15.001300 -48.252300 -13.925700  65.458700  50.346600 -84.548300 -25.599000  -0.005318   0.000333  -7.799500  -0.006280   0.007580 -30.737100  -3.828420   6.380360 -25.334600   0.037266  -0.000600 -17.734200   0.026556  -0.003786 -86.474800  -7.498490   0.484004 -86.240400   0.033303  -0.045092 -64.680300   0.041452   0.001214 -75.341200  -7.260550   1.913690 -75.478800   0.012927  -0.048774 -56.609200   0.037267  -0.009928 -31.122200 -12.050300  19.031400 -49.758900   0.040931   0.004531 -33.139500   0.019085   0.013743   5.388170  -5.421800  14.359900  51.530300   2.239660  67.546400 -10.837300 -21.357700  59.218200  15.669900 -55.237200  20.893900 -58.149000  44.760800  89.382200   0.798417   0.025980  -0.000304  -4.600800   0.011214   0.027490  26.450900   4.052300   8.011080  21.837400   0.012007  -0.002344  15.286200   0.001344  -0.002908  80.541700  -0.063141   0.029950  80.541900   0.016444   0.061989  60.406400   0.047890   0.004546  80.611700  -4.973860  -0.790577  80.647300   0.013780   0.041940  60.485500   0.033342   0.003275  27.412800  -4.739590  -9.064660  41.701600   0.036608  -0.011842  27.773300   0.017731  -0.019158   8.408940   6.351160  -0.267196   3.450490  30.524300  11.905900 -13.481600  -5.298100   1.538630  -0.000000   0.000000   0.000000   3.262580  20.986600  -3.055680   2.398920   0.398013 -13.909900  -3.336970  -4.462010   2.279070  -0.000000   0.000000   0.000000
